<svg width="49" height="15" viewBox="0 0 49 15" fill="none" xmlns="http://www.w3.org/2000/svg">
<g clip-path="url(#clip0_604_112)">
<path d="M12.4553 11.6881C12.2348 12.199 11.962 12.6859 11.6411 13.1413C11.2149 13.7478 10.865 14.1648 10.5978 14.3985C10.178 14.7776 9.7327 14.9735 9.25561 14.9861C8.9121 14.9861 8.49862 14.8913 8.01516 14.6892C7.59301 14.5073 7.13933 14.4086 6.6793 14.3985C6.20677 14.407 5.74028 14.5057 5.30528 14.6892C4.81546 14.885 4.42106 14.9861 4.11572 14.9987C3.65771 15.0177 3.1997 14.8155 2.7417 14.3922C2.44908 14.1395 2.08649 13.7036 1.64756 13.0907C1.15533 12.3885 0.765555 11.6206 0.489816 10.81C0.165392 9.8749 0 8.97144 0 8.09325C0 7.0887 0.216282 6.22315 0.655208 5.49659C0.987303 4.92684 1.46022 4.45062 2.02924 4.11296C2.59026 3.77684 3.23156 3.59579 3.88672 3.58858C4.24931 3.58858 4.73276 3.7023 5.32436 3.92343C5.91595 4.14455 6.29763 4.25828 6.46302 4.25828C6.59025 4.25828 7.01009 4.1256 7.72891 3.86657C8.40744 3.62648 8.97995 3.5254 9.44644 3.56331C10.7187 3.66439 11.6729 4.16351 12.309 5.06065C11.1703 5.74299 10.6106 6.70331 10.6233 7.92899C10.636 8.88931 10.9859 9.68537 11.6729 10.3172C11.9782 10.6029 12.3312 10.8338 12.7161 10.9995C12.6398 11.2396 12.5507 11.467 12.4553 11.6881ZM9.54186 0.30326C9.54186 1.05509 9.26833 1.75638 8.7149 2.40081C8.05333 3.17159 7.24545 3.61385 6.38033 3.54435C6.36721 3.45015 6.36083 3.35514 6.36124 3.26005C6.36124 2.5398 6.6793 1.76902 7.23909 1.13723C7.53654 0.801842 7.90032 0.530866 8.30778 0.341168C8.6877 0.147134 9.10308 0.0311034 9.52914 0C9.5355 0.101087 9.54186 0.202173 9.54186 0.30326Z" fill="black"/>
<path d="M29.0875 8.09207C29.0875 12.3402 26.6276 14.9868 22.7142 14.9868C18.7912 14.9868 16.3313 12.3402 16.3313 8.09207C16.3313 3.8439 18.7912 1.18848 22.7142 1.18848C26.6276 1.18848 29.0875 3.84453 29.0875 8.09207ZM18.7912 8.09207C18.7912 11.0615 20.3096 12.9512 22.7142 12.9512C25.1085 12.9512 26.6371 11.0634 26.6371 8.09207C26.6371 5.12075 25.1085 3.22221 22.7142 3.22221C20.3096 3.22221 18.7912 5.11254 18.7912 8.09207Z" fill="black"/>
<path d="M30.1523 4.95513H32.3788V6.63949H32.4252C32.9564 5.4732 34.0092 4.77002 35.5282 4.77002C37.7089 4.77002 38.948 6.15996 38.948 8.42557V14.765H36.6306V8.8893C36.6306 7.49936 35.978 6.72352 34.6548 6.72352C33.3317 6.72352 32.4742 7.67689 32.4742 9.08389V14.765H30.1523V4.95513Z" fill="black"/>
<path d="M48.9071 11.8308C48.6087 13.682 46.8753 14.9595 44.5363 14.9595C41.5732 14.9595 39.7844 13.0249 39.7844 9.89692C39.7844 6.79672 41.5917 4.75098 44.4434 4.75098C47.2481 4.75098 49 6.68552 49 9.66568V10.415H42.0955V10.554C42.0955 12.1271 43.0643 13.1822 44.5833 13.1822C45.6648 13.1822 46.4841 12.6452 46.7354 11.8308H48.9071ZM42.1114 8.89743H46.7239C46.6775 7.50748 45.7824 6.53768 44.4504 6.53768C43.1483 6.53768 42.2068 7.5277 42.1114 8.89743Z" fill="black"/>
</g>
<defs>
<clipPath id="clip0_604_112">
<rect width="49" height="15" fill="white"/>
</clipPath>
</defs>
</svg>
