<svg width="22" height="27" viewBox="0 0 22 27" fill="none" xmlns="http://www.w3.org/2000/svg">
<path d="M21.5488 20.3764C21.1673 21.267 20.6953 22.1159 20.1401 22.9097C19.4027 23.9671 18.7974 24.694 18.3352 25.1015C17.6088 25.7624 16.8384 26.1038 16.013 26.1258C15.4187 26.1258 14.7034 25.9606 13.8669 25.6082C13.1366 25.2912 12.3517 25.1191 11.5558 25.1015C10.7382 25.1163 9.93119 25.2883 9.17859 25.6082C8.33117 25.9496 7.64882 26.1258 7.12056 26.1479C6.32816 26.1809 5.53577 25.8285 4.74337 25.0905C4.23712 24.6499 3.6098 23.8899 2.85043 22.8216C1.99882 21.5973 1.32448 20.2587 0.847424 18.8454C0.286143 17.2153 0 15.6403 0 14.1093C0 12.358 0.374187 10.8491 1.13357 9.58241C1.70812 8.58915 2.5263 7.75895 3.51076 7.17029C4.48137 6.5843 5.59088 6.26868 6.72436 6.2561C7.35168 6.2561 8.18809 6.45436 9.21161 6.83986C10.2351 7.22536 10.8954 7.42362 11.1816 7.42362C11.4017 7.42362 12.1281 7.19232 13.3717 6.74073C14.5456 6.32219 15.5361 6.14596 16.3432 6.21205C18.5443 6.38828 20.1951 7.2584 21.2956 8.82243C19.3257 10.012 18.3572 11.6861 18.3792 13.8229C18.4012 15.4971 19.0065 16.8849 20.1951 17.9863C20.7233 18.4845 21.334 18.887 22 19.1758C21.8679 19.5944 21.7139 19.9909 21.5488 20.3764ZM16.5083 0.528685C16.5083 1.83938 16.035 3.06197 15.0775 4.18542C13.933 5.52916 12.5353 6.30016 11.0385 6.179C11.0158 6.01478 11.0048 5.84915 11.0055 5.68336C11.0055 4.42774 11.5558 3.084 12.5243 1.98257C13.0389 1.39788 13.6682 0.925479 14.3732 0.594771C15.0305 0.256504 15.7491 0.0542238 16.4862 0C16.4972 0.176228 16.5083 0.352457 16.5083 0.528685Z" fill="white"/>
</svg>
