<svg width="13" height="15" viewBox="0 0 13 15" fill="none" xmlns="http://www.w3.org/2000/svg">
<path id="path4" d="M12.4553 11.6881C12.2348 12.199 11.962 12.6859 11.6411 13.1413C11.2149 13.7478 10.865 14.1648 10.5978 14.3985C10.178 14.7776 9.7327 14.9735 9.25561 14.9861C8.9121 14.9861 8.49862 14.8913 8.01516 14.6892C7.59301 14.5073 7.13933 14.4086 6.6793 14.3985C6.20677 14.407 5.74028 14.5057 5.30528 14.6892C4.81546 14.885 4.42106 14.9861 4.11572 14.9987C3.65771 15.0177 3.1997 14.8155 2.7417 14.3922C2.44908 14.1395 2.08649 13.7036 1.64756 13.0907C1.15533 12.3885 0.765555 11.6206 0.489816 10.81C0.165392 9.8749 0 8.97144 0 8.09325C0 7.0887 0.216282 6.22315 0.655208 5.49659C0.987303 4.92684 1.46022 4.45062 2.02924 4.11296C2.59026 3.77684 3.23156 3.59579 3.88672 3.58858C4.24931 3.58858 4.73276 3.7023 5.32436 3.92343C5.91595 4.14455 6.29763 4.25828 6.46302 4.25828C6.59025 4.25828 7.01009 4.1256 7.72891 3.86657C8.40744 3.62648 8.97995 3.5254 9.44644 3.56331C10.7187 3.66439 11.6729 4.16351 12.309 5.06065C11.1703 5.74299 10.6106 6.70331 10.6233 7.92899C10.636 8.88931 10.9859 9.68537 11.6729 10.3172C11.9782 10.6029 12.3312 10.8338 12.7161 10.9995C12.6398 11.2396 12.5507 11.467 12.4553 11.6881ZM9.54186 0.30326C9.54186 1.05509 9.26833 1.75638 8.7149 2.40081C8.05333 3.17159 7.24545 3.61385 6.38033 3.54435C6.36721 3.45015 6.36083 3.35514 6.36124 3.26005C6.36124 2.5398 6.6793 1.76902 7.23909 1.13723C7.53654 0.801842 7.90032 0.530866 8.30778 0.341168C8.6877 0.147134 9.10308 0.0311034 9.52914 0C9.5355 0.101087 9.54186 0.202173 9.54186 0.30326Z" fill="black"/>
</svg>
