<svg width="21" height="20" viewBox="0 0 21 20" fill="none" xmlns="http://www.w3.org/2000/svg">
<g id="shopping-cart 1" clip-path="url(#clip0_604_303)">
<path id="Vector" d="M8.00008 18.3333C8.46032 18.3333 8.83341 17.9602 8.83341 17.5C8.83341 17.0397 8.46032 16.6666 8.00008 16.6666C7.53984 16.6666 7.16675 17.0397 7.16675 17.5C7.16675 17.9602 7.53984 18.3333 8.00008 18.3333Z" stroke="white" stroke-width="2" stroke-linecap="round" stroke-linejoin="round"/>
<path id="Vector_2" d="M17.1666 18.3333C17.6268 18.3333 17.9999 17.9602 17.9999 17.5C17.9999 17.0397 17.6268 16.6666 17.1666 16.6666C16.7063 16.6666 16.3333 17.0397 16.3333 17.5C16.3333 17.9602 16.7063 18.3333 17.1666 18.3333Z" stroke="white" stroke-width="2" stroke-linecap="round" stroke-linejoin="round"/>
<path id="Vector_3" d="M1.33325 0.833374H4.66659L6.89992 11.9917C6.97612 12.3754 7.18484 12.72 7.48954 12.9653C7.79424 13.2106 8.1755 13.3409 8.56659 13.3334H16.6666C17.0577 13.3409 17.4389 13.2106 17.7436 12.9653C18.0483 12.72 18.257 12.3754 18.3333 11.9917L19.6666 5.00004H5.49992" stroke="white" stroke-width="2" stroke-linecap="round" stroke-linejoin="round"/>
</g>
<defs>
<clipPath id="clip0_604_303">
<rect width="20" height="20" fill="white" transform="translate(0.5)"/>
</clipPath>
</defs>
</svg>
